<?xml version="1.0" encoding="UTF-8"?>
<svg width="214px" height="40px" viewBox="0 0 214 40" version="1.1" xmlns="http://www.w3.org/2000/svg" xmlns:xlink="http://www.w3.org/1999/xlink">
    <!-- Generator: Sketch 51.3 (57544) - http://www.bohemiancoding.com/sketch -->
    <title>Fill 17slogan</title>
    <desc>Created with Sketch.</desc>
    <defs></defs>
    <g id="Page-1" stroke="none" stroke-width="1" fill="none" fill-rule="evenodd">
        <g id="logo" transform="translate(-455.000000, -119.000000)" fill="#F0AA1A">
            <path d="M455.4268,121.7331 C455.8078,121.7021 469.4188,122.0361 472.8648,122.1021 C473.0748,122.1061 473.3508,122.0021 473.4928,121.9011 C474.6768,121.0771 475.8418,120.2451 476.9838,119.4021 C477.3958,119.0971 477.8608,118.9621 478.5528,119.0701 C478.7958,119.1081 479.0558,119.0921 479.2808,119.1031 L479.7498,119.1221 L475.2078,122.0401 L475.7718,122.0471 C483.1398,122.1461 490.3208,121.8901 497.3528,120.8291 C497.4508,121.6061 497.2808,122.1781 496.7308,122.6751 C496.6478,122.7491 496.5158,122.7921 496.4038,122.8191 C496.2838,122.8461 496.1508,122.8681 496.0318,122.8791 C489.9808,123.5591 483.7918,123.6691 477.5478,123.5281 C476.3598,123.5011 475.1748,123.4791 473.9868,123.4261 C473.7988,123.4191 473.6778,123.4381 473.5828,123.4791 C473.4868,123.5181 473.4198,123.5791 473.3458,123.6481 C470.6778,126.1201 468.5598,128.7521 466.6928,131.4591 L466.0888,132.3311 L466.3858,132.3521 C467.6638,132.4401 468.8968,132.5361 470.1318,132.5941 C474.5648,132.7971 478.9048,132.5881 483.1608,132.0791 C483.3468,132.0581 483.4048,132.0541 483.4628,132.0611 C483.6378,132.0851 483.8108,132.1241 483.9818,132.1571 L484.3928,132.2391 L484.0168,132.4381 C483.8058,132.5681 483.7298,132.6081 483.6328,132.6241 C482.6668,132.7801 481.6988,132.9461 480.7098,133.0671 C476.9238,133.5321 473.0618,133.7451 469.1178,133.6721 C467.9988,133.6531 466.8788,133.6161 465.7608,133.5841 L465.5348,133.5791 L465.2998,133.5941 C463.3178,136.6821 461.6038,139.6701 460.5828,142.7811 C460.4248,143.2681 460.1648,144.8121 459.9248,146.3811 C459.6868,147.9441 459.4708,149.5091 459.3988,150.0241 C459.3658,150.2341 459.2918,150.4441 459.2338,150.6511 L458.6718,150.7681 L458.1068,150.6251 C457.0768,150.3601 456.9388,150.2021 457.1148,149.5121 C457.4518,148.1811 458.5098,142.6711 458.7178,141.3291 C459.1418,138.6691 459.4918,136.0041 459.8718,133.3161 C458.6218,132.9711 457.5728,132.8111 456.5128,132.6991 C456.1678,132.6621 455.8678,132.6051 455.6598,132.4831 C455.4538,132.3621 455.3398,132.1781 455.3688,131.8831 C455.3878,131.7021 455.3738,131.5141 455.3478,131.3111 C455.3208,131.1011 455.2838,130.8871 455.2598,130.6591 L455.2388,130.4551 L459.9858,131.4771 C460.0678,130.3601 460.2088,129.4521 460.2628,128.5451 C460.3238,127.5281 460.2738,126.5311 459.8858,125.5241 C459.5068,124.5321 458.8098,123.6111 457.3708,122.8931 C456.7968,122.6091 456.1338,122.3271 455.3838,122.0201 L455.4268,121.7331 Z M462.4168,125.2621 C463.0428,126.5451 463.0548,127.8271 462.8838,129.0851 C462.7688,129.9481 462.6088,130.8071 462.4588,131.6901 L464.7298,132.1981 C466.6628,129.1701 468.8298,126.3521 471.5288,123.6701 L471.8058,123.3951 L460.4778,122.9511 L460.3908,123.2701 C461.3708,123.7991 462.0308,124.4711 462.4168,125.2621 Z M463.8368,133.4651 L462.1028,133.3481 L460.8938,138.1921 L461.2078,138.3131 L463.8368,133.4651 Z M590.8308,126.2681 C590.0508,125.5641 589.0288,125.0121 587.5198,124.8891 C585.4608,124.7221 583.7088,125.0771 582.1938,125.7351 C580.1678,126.6161 578.9988,127.8371 578.2728,129.1881 C576.4638,132.5511 576.7398,135.9941 578.8628,139.5031 C579.5988,140.7211 580.6568,141.8671 582.1538,142.9331 C583.5988,142.3781 584.6888,141.7361 585.6198,141.0231 C589.7318,137.8761 592.1808,134.3471 592.5348,130.3391 C592.6578,128.9361 592.2628,127.5601 590.8308,126.2681 Z M565.6078,139.5751 L565.4768,139.3381 L565.2068,137.6961 C565.2628,137.1241 565.2818,136.5871 565.3768,136.0591 C565.8828,133.2391 567.5838,130.7301 570.6128,128.5811 C572.1768,127.4721 574.0378,126.5571 576.2728,125.8751 C576.6478,125.8051 576.7988,125.8131 576.9578,125.8131 L577.2188,125.8131 L577.0858,126.0401 C577.0128,126.2231 576.9658,126.3041 576.8648,126.3501 C576.1068,126.6961 575.2638,126.9911 574.5708,127.3701 C572.2408,128.6371 570.7398,130.2131 569.6428,131.9291 C568.1488,134.2671 567.4538,136.6861 567.9678,139.2351 C568.2048,140.3991 568.7348,141.5321 569.9698,142.5611 C571.5028,143.8421 573.6348,144.4261 576.2868,144.3741 C577.7078,144.3471 578.9698,144.1411 580.1548,143.7661 L580.4438,143.6741 L580.2128,143.4761 C579.8128,143.1311 579.4078,142.7881 579.0558,142.4301 C577.5258,140.8911 576.6488,139.2531 576.1448,137.5651 C575.4388,135.2121 575.4558,132.8911 576.2138,130.6121 C576.7748,128.9311 577.7088,127.3371 579.4068,125.9401 C580.5498,125.0011 581.9658,124.2361 583.9418,123.8361 C587.3468,123.1461 591.2518,123.9581 593.3388,125.8111 C594.7218,127.0391 595.1838,128.3621 595.2388,129.7291 C595.3978,133.7021 593.1198,137.1221 589.2418,140.1521 C587.6348,141.4111 585.7448,142.5221 583.5078,143.4401 L583.1858,143.5721 L583.4888,143.7441 C584.5898,144.3711 585.8298,144.8841 587.2638,145.2311 C591.0288,146.1401 594.5598,146.0511 597.8318,144.9441 C597.9178,144.9151 598.0148,144.9081 598.1008,144.9051 L598.3438,144.8951 L598.7898,144.8601 L598.4568,145.1551 C598.3108,145.3051 598.2548,145.3521 598.1758,145.3891 C595.7888,146.4601 592.9988,146.9361 589.7958,146.7441 C586.7178,146.5611 584.0308,145.8311 581.7908,144.5281 L581.4738,144.3501 C581.1648,144.2781 581.0308,144.3131 580.6788,144.4141 C578.9848,144.8991 577.1868,145.2021 575.1698,145.1331 C571.9928,145.0281 569.4938,144.2031 567.6868,142.6501 C566.5758,141.6981 565.9618,140.6571 565.6078,139.5751 Z M534.1308,138.2221 L534.3608,138.5411 L534.4358,138.1561 C534.4868,137.8951 534.5008,137.6291 534.4938,137.3521 L534.2338,137.0901 C533.8488,137.5631 533.8978,137.8961 534.1308,138.2221 Z M556.6298,126.0611 C557.2818,125.0531 557.6678,124.0181 557.6408,122.9291 C557.6188,122.0601 556.8278,121.6331 555.1148,121.9811 C553.9088,122.2291 553.0498,122.7101 552.2638,123.2451 C550.5398,124.4231 549.3418,125.7861 548.2528,127.1961 C546.1258,129.9561 544.5548,132.8451 543.1508,135.7771 L542.2748,137.6531 L542.7428,137.3801 C545.6038,135.7171 548.2378,133.9481 550.6498,132.0681 C553.0508,130.1941 555.2178,128.2511 556.6298,126.0611 Z M533.2768,136.0121 L532.9828,136.3971 L533.4518,136.2801 C534.2058,136.0921 534.8528,136.2761 535.1558,136.7941 C535.5778,137.5241 535.4078,138.2331 535.2148,138.8771 C535.2038,139.0351 535.2798,139.1011 535.3458,139.1361 C535.4028,139.1661 535.4868,139.1931 535.5928,139.2221 C536.6398,139.5071 537.6098,139.4061 538.5848,139.2001 C539.7618,138.9441 540.2878,138.5771 540.5628,137.9911 C542.2628,134.3901 544.2248,130.8391 546.8098,127.4281 C548.0298,125.8181 549.3858,124.2411 551.2238,122.8211 C552.0948,122.1491 553.0728,121.5271 554.3598,121.0771 C555.0658,120.8311 555.8408,120.6821 556.7048,120.6761 C558.4218,120.6641 559.7658,121.4201 559.8118,122.6091 C559.8538,123.6191 559.5638,124.5791 559.0428,125.5011 C558.2068,126.9771 556.9618,128.3221 555.5288,129.5981 C551.9308,132.7981 547.5368,135.6201 542.6998,138.2271 L542.4418,138.3661 L542.6908,138.5201 C544.0458,139.3581 545.5358,140.0281 547.5948,140.0581 C549.8888,140.0901 551.2788,139.2821 552.6978,138.3271 L552.9278,138.4281 C552.9408,138.5111 552.9668,138.5811 552.9808,138.6311 C552.9948,138.8071 552.9738,138.8671 552.9188,138.9111 C551.3928,140.1381 549.4398,141.0061 546.4878,140.9401 C544.5848,140.8971 543.1868,140.2861 542.0478,139.4401 L541.6478,139.1201 L541.5628,139.3331 C539.5738,144.3311 538.0518,149.3951 536.7228,154.4871 C536.6108,154.9211 536.2508,154.9541 535.7728,154.8651 L535.3818,154.7901 C534.2808,154.5361 534.0308,154.4131 534.2808,153.6431 C535.7588,148.9991 537.5398,144.4041 539.6458,139.8631 L539.8128,139.5031 L539.4378,139.6311 C538.0868,140.0921 536.6688,140.3381 534.9428,139.9351 L534.4778,140.4991 C533.8498,141.5081 533.0118,142.4481 531.6878,143.2161 C530.9818,143.6241 530.1618,143.9351 529.1218,144.0551 C527.5648,144.2381 526.1588,143.8341 525.5298,142.9071 C525.4088,142.7331 525.3188,142.5551 525.2388,142.3811 L525.0028,141.8761 C525.0458,141.3891 525.0768,141.0901 525.1258,140.7981 C525.1778,140.4881 525.2548,140.1691 525.4158,139.8631 C526.4498,137.9201 528.4488,136.4541 531.9618,135.7991 C532.3488,135.7271 532.7818,135.7151 533.1958,135.6751 L533.4208,135.6541 L533.3508,135.8711 L533.2768,136.0121 Z M528.5438,138.3171 C527.5988,139.2951 527.1118,140.3411 527.2648,141.4691 C527.3018,141.7571 527.4398,142.0651 527.6348,142.3651 C527.8428,142.6841 528.2438,142.8271 528.9578,142.8101 C530.0128,142.7841 530.8018,142.5011 531.4728,142.1101 C532.6538,141.4231 533.3688,140.5811 533.8778,139.6701 L533.7268,139.3631 C532.7168,138.6341 532.0098,137.7701 532.6008,136.7881 C532.6508,136.7051 532.7328,136.6251 532.8398,136.5491 L532.7108,136.2451 C530.7858,136.6121 529.4708,137.3571 528.5438,138.3171 Z M475.9438,137.1941 C475.7198,137.3811 475.7608,137.9341 476.1278,138.2701 L476.3948,138.5121 L476.4108,138.1511 C476.4238,137.8831 476.4348,137.6261 476.4268,137.3651 L476.1588,137.1131 L475.9438,137.1941 Z M496.9488,142.0791 C496.8978,142.3291 497.0958,142.5961 497.9558,142.5511 C498.6298,142.5201 499.3208,142.4341 499.9148,142.2801 C501.5188,141.8601 502.7928,141.2021 503.9838,140.4871 C504.1328,140.3981 504.2238,140.2581 504.2568,140.1381 C504.4328,139.5101 504.5398,138.8721 504.7288,138.2471 C504.8488,137.8461 505.0118,137.4521 505.1848,137.0231 L505.2968,136.7471 L504.9998,136.7921 C504.4018,136.8831 503.8408,136.9631 503.3258,137.0901 C500.4678,137.7951 498.6598,139.0451 497.5458,140.6141 C497.2248,141.0651 497.0528,141.5711 496.9488,142.0791 Z M509.8228,136.6241 C513.4528,133.8351 516.6688,130.9071 518.9678,127.6721 C519.7988,126.5061 520.4818,125.3501 520.3938,124.0871 L520.3788,123.8591 C520.2828,123.5681 520.1798,123.4581 519.8918,123.3791 C519.3388,123.2311 518.9608,123.4561 518.6318,123.6621 C518.2038,123.9321 517.7698,124.2021 517.3528,124.4811 C516.9398,124.7561 516.5438,125.0411 516.1888,125.3381 C513.1028,127.9231 510.7608,130.7431 508.8528,133.6941 C507.8448,135.2521 507.0168,136.8351 506.5768,138.5241 L506.4618,138.9621 L506.8358,138.7081 C507.8448,138.0181 508.8838,137.3431 509.8228,136.6241 Z M489.8558,143.6281 C489.7188,143.6861 489.5448,143.7121 489.3818,143.7291 C489.2218,143.7461 489.0508,143.7541 488.8958,143.7781 C488.7078,143.5901 488.6598,143.5031 488.6248,143.4181 C488.5878,143.3251 488.5448,143.1921 488.5938,143.0571 C488.9788,142.0021 489.4318,140.9571 489.8178,139.9001 C490.0838,139.1611 490.3268,138.4171 490.4828,137.6641 C490.5118,137.5201 490.4598,137.4211 490.3088,137.3621 C490.1458,137.2961 489.8738,137.2881 489.5328,137.3811 C489.0098,137.5261 488.5218,137.7391 488.1328,137.9751 C486.6478,138.8771 485.6458,139.9691 484.7398,141.0961 C483.9388,142.0991 483.2788,143.1431 482.5668,144.1721 L482.4608,144.5101 L481.8778,144.6101 C481.6788,143.8701 481.4668,143.2411 481.3468,142.6101 C481.1408,141.4971 480.9848,140.3491 481.4068,139.2381 L481.5248,138.9261 L481.2018,139.0141 C480.6918,139.1551 480.1848,139.3051 479.6398,139.4091 C478.9618,139.5401 478.2038,139.5941 477.4668,139.6101 C477.2578,139.6161 477.1348,139.6331 477.0558,139.6681 C476.4778,140.7701 475.7808,141.6551 474.8048,142.4481 C473.8958,143.1851 472.8158,143.8211 471.1148,144.0141 C469.5558,144.1951 468.1708,143.7681 467.5408,142.8461 C466.8408,141.8271 466.9378,140.8221 467.4248,139.8691 C468.2538,138.2411 469.8748,136.9641 472.4768,136.1521 C473.2748,135.9031 474.1428,135.7181 475.1238,135.7351 L475.3638,135.7391 L475.2588,135.9441 L474.9528,136.4031 L475.3608,136.3151 C475.5478,136.2761 475.7578,136.2611 475.9888,136.2721 C476.6078,136.3011 476.9628,136.5281 477.2018,136.8421 C477.6048,137.3681 477.5228,137.8951 477.4288,138.3671 L477.3328,138.7991 C478.3278,138.9441 479.0708,138.8621 479.8068,138.7241 C481.1068,138.4821 482.0788,137.9901 483.0568,137.4771 C483.4278,137.2821 483.8918,137.1401 484.3138,136.9751 C484.5788,137.1431 484.6268,137.2311 484.6458,137.3161 C484.6698,137.4321 484.6338,137.5491 484.5218,137.6211 C483.5618,138.2291 483.3408,138.9791 483.3068,139.7951 L483.2378,141.7761 L483.5638,141.3301 C484.6308,139.8711 485.7798,138.4441 487.6898,137.2841 C488.4418,136.8271 489.3078,136.4451 490.5038,136.3621 C491.3658,136.2991 492.0658,136.5421 492.2218,137.1431 C492.2838,137.3891 492.3498,137.6991 492.2448,137.9841 C491.8598,139.0411 491.4198,140.0901 491.0048,141.1431 L490.6888,141.9791 L490.9688,141.9441 C491.1408,141.9221 491.2748,141.8851 491.3808,141.8361 C492.3558,141.3721 493.3518,140.9191 494.2498,140.4111 C495.2508,139.8471 496.1348,139.2191 497.1028,138.6391 C498.7858,137.6321 500.5798,136.6801 503.1478,136.3261 C503.7858,136.2391 504.4598,136.1941 505.1278,136.1761 C505.3258,136.1721 505.4498,136.1571 505.5348,136.1231 C507.3348,132.8231 509.6048,129.8471 512.5108,127.0521 C513.9898,125.6291 515.6148,124.2591 517.8098,123.1381 C518.6918,122.6891 519.6808,122.3381 520.8818,122.1811 L521.4808,122.1801 C522.1398,122.3121 522.4948,122.5871 522.5928,123.0061 C522.7868,123.8091 522.6138,124.5751 522.3118,125.3041 C521.8008,126.5451 520.9628,127.7021 519.9718,128.8091 C516.4198,132.7741 511.8078,136.3051 506.6738,139.6181 C506.4808,139.7431 506.3708,139.9071 506.3648,140.0181 C506.3198,140.7081 506.3678,141.3761 506.8198,142.0331 C507.1458,142.5061 507.5968,142.6701 508.5258,142.5221 C510.0848,142.2761 511.3588,141.7641 512.5978,141.2171 C514.2898,140.4711 515.8118,139.6361 517.0838,138.6691 C517.1968,138.5841 517.3248,138.5061 517.4478,138.4261 C517.6918,138.5011 517.7598,138.5871 517.7918,138.6691 C517.8308,138.7701 517.8158,138.8661 517.7148,138.9501 C515.4498,140.8951 512.5418,142.4551 508.8248,143.5281 C508.4818,143.6291 508.1048,143.7011 507.7258,143.7621 C506.4838,143.9641 505.6108,143.7681 505.0678,143.0051 C504.9028,142.7761 504.7818,142.5411 504.6788,142.3061 L504.3888,141.6221 L504.2718,141.3121 C503.4298,141.6681 502.7998,142.0161 502.1388,142.3441 C501.0428,142.8911 499.8608,143.3881 498.4178,143.6671 C498.0168,143.7441 497.5788,143.7941 497.1468,143.8131 C495.9628,143.8631 494.8358,143.3481 494.6348,142.5331 C494.5408,142.1421 494.6048,141.7741 494.7408,141.4261 L494.9218,140.9661 L494.4958,141.2191 C493.8008,141.6331 493.1068,142.0471 492.3748,142.4421 C491.5868,142.8671 490.7268,143.2531 489.8558,143.6281 Z M470.4538,138.4231 C469.6428,139.2991 469.1938,140.2291 469.2698,141.2231 C469.2968,141.5871 469.4518,141.9731 469.6808,142.3461 C469.8718,142.6631 470.3648,142.8251 471.0968,142.7841 C472.0068,142.7331 472.7278,142.4931 473.3248,142.1481 C474.5858,141.4281 475.3088,140.5341 475.8498,139.5551 L475.7658,139.3171 C474.5998,138.8291 474.2888,138.1211 474.3788,137.3191 C474.4018,137.1141 474.4878,136.9071 474.6338,136.7281 L474.6548,136.2721 C472.6778,136.6511 471.3728,137.4311 470.4538,138.4231 Z M641.9418,134.8461 C642.7668,134.9051 645.0688,134.8311 646.1688,134.8031 L646.3888,134.7231 C647.0078,133.6021 647.5368,132.5451 648.0708,131.4911 L648.2908,131.0721 L648.9638,131.6181 C649.1398,131.7621 649.3118,131.9111 649.4528,132.0711 C649.6458,132.2901 649.5238,132.5871 649.4148,132.7391 C649.0098,133.3001 648.5828,133.8561 648.1368,134.4381 L647.9118,134.7311 L653.5648,134.4251 L653.7668,134.8021 C653.4508,134.8721 653.3338,134.9131 653.2038,134.9251 C651.3858,135.1041 649.5658,135.2751 647.7478,135.4601 C647.6628,135.4671 647.5868,135.4931 647.5328,135.5151 C646.3628,137.5031 645.3858,139.4031 644.9058,141.3831 C644.8588,141.5871 644.8428,141.7981 644.8608,142.0061 C644.9468,142.1741 645.0408,142.2121 645.1348,142.2221 C645.2258,142.2331 645.3378,142.2221 645.4758,142.2001 C645.8878,142.1291 646.2878,142.0281 646.6448,141.9001 C648.8418,141.1061 650.6408,140.0691 652.3138,138.9621 C652.4618,138.8641 652.5588,138.7411 652.6498,138.6021 C652.7458,138.4521 652.8268,138.2921 652.9348,138.1471 L653.2778,137.6961 C653.3988,137.5441 653.5268,137.3991 653.6778,137.2561 C653.9808,136.9721 654.3598,136.7191 654.8918,136.5311 C655.1878,136.4271 655.5098,136.3441 655.8178,136.2531 C656.0948,136.5421 656.0978,136.7561 655.9118,136.9131 C654.1788,138.3811 653.4508,140.0511 653.2858,141.8401 C653.2698,142.0251 653.3418,142.2341 653.4388,142.4661 C653.6848,142.6271 653.8178,142.6341 653.9808,142.5781 C654.2118,142.4971 654.4528,142.4171 654.6798,142.3301 C654.9038,142.2421 655.1058,142.1501 655.2648,142.0441 C656.5488,141.1941 657.8188,140.3351 659.0088,139.4441 C660.1128,138.6201 661.1078,137.7541 662.1548,136.9051 L662.3678,136.7451 C662.7408,136.8061 662.8638,136.8791 663.0068,136.9341 C663.5378,137.1401 663.6258,137.4591 663.4208,137.8011 L660.3478,142.9621 L660.8838,142.6761 C663.3878,141.3441 665.8158,139.9771 667.8988,138.4361 C668.1548,138.5011 668.2298,138.5921 668.2588,138.6901 C668.2878,138.7861 668.2708,138.8871 668.1568,138.9711 C667.3338,139.5801 666.5578,140.2131 665.6438,140.7761 C663.7258,141.9541 661.7268,143.0911 659.7728,144.2531 C659.5858,144.3641 659.4398,144.5001 659.3618,144.6281 C657.4338,147.7411 655.3748,150.8281 652.6368,153.7351 C651.3508,155.0981 649.9478,156.4391 647.8618,157.4861 C647.0668,157.8831 646.1758,158.2111 645.0118,158.2541 C644.0688,158.2891 643.3968,158.0771 642.9988,157.5161 C642.4168,156.6901 642.6398,155.8861 642.9538,155.1591 C643.6328,153.5771 645.1408,152.2701 646.7718,151.0381 C649.5148,148.9631 652.7568,147.1471 656.0068,145.3461 C656.1898,145.2451 656.3598,145.1311 656.5638,145.0451 C657.6888,144.5731 658.2568,143.9251 658.6138,143.1691 C659.1708,141.9931 659.8228,140.8351 660.4478,139.6701 L660.1938,139.4581 C658.9318,140.4541 657.7358,141.4191 656.4818,142.3591 C655.9608,142.7471 655.3028,143.0851 654.6238,143.3771 C653.1078,144.0291 651.6808,143.7101 651.2638,142.4971 C651.1368,142.1321 651.1508,141.7851 651.2238,141.4531 C651.2798,141.2021 651.3718,140.9541 651.4668,140.7081 L651.6518,140.2271 L651.2178,140.5031 C650.6318,140.8741 650.0468,141.2451 649.4058,141.5841 C648.3068,142.1631 647.1338,142.7011 645.9398,143.2191 C645.4868,143.4201 644.9018,143.5381 644.3548,143.6361 C644.0478,143.6901 643.7408,143.6901 643.5158,143.6061 C643.2898,143.5211 643.1458,143.3521 643.1598,143.0691 C643.1938,142.4021 643.2898,141.7371 643.4398,141.0821 C643.4898,140.8521 643.5638,140.6261 643.6468,140.3931 L643.8218,139.9041 L643.3918,140.1961 C641.7738,141.2931 640.0528,142.3401 637.9428,143.1691 C637.4348,143.3691 636.8428,143.5221 636.2438,143.6391 C635.9188,143.7031 635.6218,143.6961 635.4028,143.6081 C635.1728,143.5131 635.0228,143.3231 635.0548,143.0551 C635.1608,142.1671 635.3528,141.2821 635.5578,140.4001 C635.5838,140.2861 635.6188,140.1731 635.6568,140.0611 L635.8288,139.5611 L635.3998,139.8681 C635.1238,140.0631 634.8468,140.2581 634.5568,140.4461 C632.9538,141.4911 631.2488,142.4911 629.0268,143.1591 C628.3168,143.3741 627.5128,143.5471 626.6998,143.6101 C625.1498,143.7311 623.9888,143.2961 623.4618,142.3781 C623.3478,142.1781 623.2588,141.9771 623.1768,141.7711 L622.9518,141.2121 C622.9408,140.9671 622.9678,140.8991 622.9768,140.8261 L623.0238,140.4601 L622.7148,140.6621 C621.9818,141.1431 621.2028,141.5891 620.3638,142.0171 C619.3368,142.5441 618.1888,143.0031 617.0598,143.4651 C616.8978,143.5301 616.7028,143.5721 616.5098,143.6021 C616.3188,143.6331 616.1148,143.6531 615.9228,143.6761 C615.7008,143.7011 615.4908,143.6841 615.3338,143.6151 C615.1658,143.5381 615.0488,143.3891 615.0838,143.1801 C615.1258,142.9321 615.1558,142.6801 615.2028,142.4321 C615.2538,142.1781 615.3228,141.9201 615.4468,141.6701 C615.5838,141.3911 615.7408,141.1161 615.9118,140.8381 L615.6638,140.6141 C614.7808,141.2981 613.8998,141.9821 612.9598,142.6411 C612.4358,143.0081 611.7298,143.3051 611.0298,143.5531 C609.8878,143.9581 608.9248,143.7471 608.3058,142.9731 C607.8778,142.4361 607.8838,141.9181 608.0168,141.4341 L608.1248,141.0401 L607.7698,141.2421 C606.9428,141.7121 606.1258,142.1801 605.2688,142.6271 C604.3828,143.0901 603.4368,143.5471 602.1758,143.7391 C601.3638,143.8601 600.9828,143.7831 601.0508,143.1221 C601.1578,142.0821 601.6508,141.1141 602.2338,140.1801 L601.9848,139.9571 C600.9238,140.8011 599.8698,141.6471 598.7668,142.4711 C598.2388,142.8641 597.5658,143.2011 596.8848,143.5001 C595.0208,144.3181 593.9658,143.5081 593.5928,142.6221 C593.3318,142.0081 593.5488,141.4231 593.7538,140.9111 C594.2468,139.6681 594.9658,138.4741 596.0308,137.3701 C596.4928,136.8891 597.3448,136.5551 598.2808,136.4211 L598.5588,136.3811 L598.4348,136.6331 C598.3988,136.7071 598.3788,136.7761 598.3558,136.8381 C598.3258,136.9111 598.2848,136.9951 598.2018,137.0671 C596.4788,138.5241 595.7558,140.1811 595.5908,141.9561 C595.5748,142.1411 595.6468,142.3481 595.7408,142.5771 C595.9808,142.7371 596.1118,142.7451 596.2768,142.6901 C596.4948,142.6181 596.7228,142.5451 596.9358,142.4651 C597.1468,142.3861 597.3348,142.3001 597.4808,142.2041 C598.7408,141.3661 599.9908,140.5221 601.1628,139.6431 C602.2908,138.7961 603.3208,137.9051 604.3888,137.0361 L604.5978,136.9991 C605.7388,137.6241 605.7548,137.7341 604.9768,138.4551 C603.7988,139.5401 603.1168,140.7421 602.7888,142.0171 L603.1998,142.3031 C603.3838,142.2991 603.5048,142.2871 603.5848,142.2551 C604.6788,141.8211 605.7458,141.3641 606.7908,140.8941 C607.2248,140.7001 607.5798,140.4511 607.9728,140.2261 C608.6848,139.8201 609.2628,139.3621 609.7728,138.8641 C610.8588,137.7971 612.2528,136.8791 614.1828,136.2621 C615.7118,135.7751 617.3548,135.5861 619.1648,136.1081 C619.3978,136.1731 619.6258,136.2481 619.8308,136.3381 L620.1448,136.5981 L620.4408,136.8601 L620.0488,136.8601 C619.7918,136.8641 619.7678,136.8601 619.7428,136.8521 C618.2088,136.3661 616.8068,136.5201 615.4988,136.9541 C613.3028,137.6781 611.9218,138.7941 610.9228,140.0741 C610.3938,140.7581 610.0338,141.4431 610.1088,142.1741 C610.1268,142.3461 610.2408,142.5451 610.3648,142.5811 C610.5648,142.6361 611.0298,142.5681 611.2178,142.4681 C611.7108,142.2081 612.2098,141.9481 612.6908,141.6781 C613.1678,141.4131 613.6278,141.1371 614.0438,140.8421 C615.5498,139.7781 616.9408,138.6631 618.3758,137.5671 L618.8568,137.2021 C619.0398,137.3161 619.1128,137.3701 619.1988,137.4131 C619.9758,137.8171 620.0358,137.9381 619.4068,138.4411 C618.0718,139.5201 617.2318,140.7251 616.8428,142.0321 L616.7778,142.3231 L617.0668,142.2701 L617.4618,142.2041 C618.6278,141.9691 619.5658,141.5441 620.4078,141.0671 C621.3098,140.5591 622.1738,140.0321 623.0328,139.5011 C623.1368,139.2191 623.1688,139.0551 623.2128,138.8951 C623.8308,136.6491 625.0868,134.5381 626.5578,132.4851 C628.5758,129.6701 630.9278,126.9561 634.2038,124.5491 C635.5598,123.5531 637.0148,122.5751 639.3468,122.1821 L640.2328,122.1801 C641.5068,122.5391 641.9418,123.1431 642.0038,123.8861 C642.1438,125.6041 641.1708,127.1011 639.9378,128.4991 C637.7738,130.9411 634.8418,133.0671 631.6308,135.0551 C629.6158,136.2991 627.4698,137.4771 625.3878,138.6861 C624.9438,139.7641 624.8218,140.5941 625.2538,141.4371 C625.6478,142.2001 626.6238,142.5591 628.0788,142.3581 C629.5278,142.1591 630.6818,141.6921 631.7908,141.1771 C633.5218,140.3741 634.9468,139.4111 636.3418,138.4231 L636.4768,138.2101 L637.3658,136.1631 L637.9118,136.4081 C639.1078,136.9561 639.1878,137.0871 638.4888,137.8811 C637.3858,139.1441 636.8398,140.5021 636.8138,141.9391 L636.8588,142.1801 C637.0258,142.2551 637.2208,142.2631 637.5758,142.1501 C638.5628,141.8371 639.5428,141.4991 640.3488,141.0731 C641.6988,140.3641 642.9178,139.5751 644.1798,138.8151 C644.3068,138.7381 644.3978,138.6441 644.4428,138.5591 C644.9008,137.6761 645.3488,136.7921 645.7948,135.9081 L645.9328,135.6381 L645.6298,135.6631 C645.0818,135.7061 644.5478,135.7511 644.0078,135.7691 C643.0668,135.8011 642.6008,135.8631 641.6538,135.8331 L641.2988,135.8131 C641.6008,135.5661 641.8138,135.2181 641.9418,134.8461 Z M639.9058,125.1071 C639.9878,124.6711 639.9728,124.2151 639.8518,123.7761 C639.7328,123.3251 638.9478,123.0521 638.0518,123.3301 C637.8378,123.3941 637.6418,123.4791 637.4608,123.5681 C635.4638,124.5611 634.0228,125.8011 632.7048,127.1001 C629.7908,129.9701 627.6148,133.0361 626.0678,136.2621 C625.8858,136.6381 625.7358,137.0221 625.5878,137.4051 L625.4328,137.8111 L625.8228,137.6181 C626.3928,137.3351 626.9038,137.0391 627.4018,136.7371 C631.0628,134.5141 634.4388,132.1781 637.0748,129.5241 C638.4578,128.1311 639.6048,126.7081 639.9058,125.1071 Z M644.7168,156.3161 C644.7238,156.6791 644.7968,157.0361 645.4968,157.2331 C646.1928,157.4271 646.6998,157.1951 647.2038,156.9581 C648.3118,156.4321 649.1398,155.7741 649.8888,155.0771 C651.5058,153.5791 652.8348,151.9991 654.0238,150.3781 C654.9638,149.0931 655.8168,147.7841 656.6518,146.4721 L656.4258,146.2331 C655.1998,146.9181 654.0258,147.6221 652.8788,148.3401 C650.4438,149.8651 648.1258,151.4301 646.3758,153.2311 C645.4228,154.2111 644.6978,155.1981 644.7168,156.3161 Z M639.5438,133.4211 C640.0878,133.3621 640.4658,133.7391 640.4068,134.2841 C640.3428,134.8551 639.8208,135.3791 639.2478,135.4411 C638.7038,135.5021 638.3248,135.1231 638.3848,134.5791 C638.4478,134.0081 638.9728,133.4841 639.5438,133.4211 Z" id="Fill-17"></path>
        </g>
    </g>
</svg>